<?xml version="1.0" encoding="UTF-8"?>
<svg id="a" data-name="Layer 1" xmlns="http://www.w3.org/2000/svg" viewBox="0 0 118.8 201.5">
  <path d="m63.14,179.38l7.27,6.33h-11.82s18.01-15.68,18.01-15.68l-3.09,6.79v-79.32l9,9h-.08c-4.97,0-9-4.03-9-9,0-3.61,2.13-6.73,5.21-8.16l.31-.14c6.6-3.06,12.32-7.94,16.26-14.04,1.97-3.04,3.52-6.35,4.52-9.85,1.04-3.48,1.55-7.14,1.51-10.84-.02-3.67-.56-7.35-1.69-10.88-1.13-3.53-2.77-6.94-4.84-10.12-4.15-6.39-10.05-11.8-17.3-15.82l-.14-.08c-2.29-1.27-3.12-4.15-1.85-6.44.99-1.79,2.98-2.68,4.9-2.38,10.1,1.62,19.68,7.3,26.58,15.41,6.94,8.11,11.1,18.73,11.82,29.6.32,5.41-.15,10.91-1.47,16.23-1.36,5.31-3.52,10.43-6.45,15.08-5.83,9.3-14.65,16.74-24.88,20.72l-3.48-17.3h.08c4.97,0,9,4.03,9,9v79.32c0,2.7-1.21,5.14-3.09,6.79l-18.01,15.68c-3.43,2.99-8.49,2.91-11.82,0l-7.27-6.33c-3.75-3.26-4.14-8.95-.87-12.7s8.95-4.14,12.7-.87Z" style="fill: #22351a; stroke-width: 0px;"/>
  <circle cx="51.5" cy="41.5" r="15.5" style="fill: none; stroke: #8dc175; stroke-miterlimit: 10; stroke-width: 9px;"/>
  <path d="m33.5,169.5v3.2l16.99,14.8,18.01-15.68v-79.32h-.08c16.74-7.02,28.33-23.89,27.54-43.36-.96-23.88-20.86-43.03-44.76-43.14S6,26.08,6,51c0,18.68,11.38,34.7,27.58,41.5h-.08v6" style="fill: none; stroke: #8dc175; stroke-linecap: round; stroke-linejoin: round; stroke-width: 12px;"/>
  <polyline points="33.5 99.5 44.97 110.99 33.5 122.5 44.97 134.02 33.5 145.5 44.97 157.02 33.5 168.5" style="fill: none; stroke: #8dc175; stroke-linecap: round; stroke-linejoin: round; stroke-width: 12px;"/>
</svg>